Coordinates
version=1
nRows=14
nColumns=33
inDegrees=yes

Units are S.I. units (second, meters, Newtons, ...)
Angles are in degrees.

endheader
time	ground_thorax_rot_x	ground_thorax_rot_y	ground_thorax_rot_z	ground_thorax_tx	ground_thorax_ty	ground_thorax_tz	clav_prot_r	clav_elev_r	scapula_abduction_r	scapula_elevation_r	scapula_upward_rot_r	scapula_winging_r	shoulder_elv_r	plane_of_elev_r	axial_rot_r	elbow_flexion_r	pro_sup_r	wrist_flex_r	wrist_dev_r	clav_prot_l	clav_elev_l	scapula_abduction_l	scapula_elevation_l	scapula_upward_rot_l	scapula_winging_l	shoulder_elv_l	plane_of_elev_l	axial_rot_l	elbow_flexion_l	pro_sup_l	wrist_flex_l	wrist_dev_l
      3.13000000	     23.44100287	     43.86241582	     -2.87815424	      0.02038989	      1.01205643	     -0.05585432	    -26.55764242	     17.46679566	    -18.56139783	     10.21360002	     45.00000000	    -16.21163931	     53.90401525	    -64.24281924	     78.79181372	     65.73181641	    -47.04705181	     15.13678829	     -0.07372644	     26.17877732	    -35.00970466	    -45.00000000	      7.71559789	    -40.60282011	      5.85609009	     63.86151319	     12.18202896	     -6.33072207	     31.43201591	      7.62690250	     45.48750161	     -2.72956279
      3.14000000	     23.15167201	     43.89546160	     -2.65696595	      0.02077100	      1.01261869	     -0.05597017	    -26.51540822	     17.07556695	    -18.24490379	      9.90783451	     45.00000000	    -16.19445537	     53.17779053	    -64.09513349	     78.54133987	     64.73753972	    -47.16109726	     14.81938762	     -0.20106348	     26.22729756	    -35.26175295	    -45.00000000	      7.90131354	    -40.68960298	      5.64600396	     63.96780175	     12.03389829	     -5.90234850	     30.71073421	      7.75624501	     45.05984376	     -2.81250913
      3.15000000	     23.24166419	     43.95171266	     -2.72640392	      0.02115956	      1.01254398	     -0.05635094	    -26.40947625	     16.90618791	    -17.95723256	      9.78365820	     45.00000000	    -16.15117683	     52.81162080	    -63.87911520	     78.48330376	     63.97121524	    -47.24449755	     14.51119596	     -0.24134943	     26.28964422	    -35.53666627	    -45.00000000	      8.13371212	    -40.70672205	      5.41604503	     63.99089375	     12.11568814	     -5.91339158	     30.03461113	      7.94086798	     45.00849504	     -2.64012806
      3.16000000	     23.34355554	     43.84465696	     -2.74014493	      0.02110562	      1.01173134	     -0.05583497	    -26.15138852	     17.82012457	    -18.07709042	     10.53317449	     45.00000000	    -16.04100781	     48.92485858	    -63.25914475	     74.82814329	     62.50592982	    -48.60768862	     14.18100851	      0.45424136	     26.24826719	    -35.81178367	    -45.00000000	      8.03085299	    -41.61267149	      5.23809177	     64.50211223	     13.30929790	     -3.82725137	     28.48569285	      8.62592823	     45.66228495	     -2.51062042
      3.17000000	     23.30485758	     43.94570896	     -2.68755396	      0.02147471	      1.01187061	     -0.05618233	    -26.05067557	     17.55893550	    -17.73573937	     10.33575539	     45.00000000	    -16.00320516	     48.52387978	    -63.16433131	     74.88951332	     61.60783530	    -48.66679504	     13.81627668	      0.28863965	     26.30007341	    -36.05691264	    -45.00000000	      8.22543481	    -41.66377327	      5.03060530	     64.55852216	     13.25862200	     -3.82791853	     27.93260711	      8.76640748	     45.44892802	     -2.43776759
      3.18000000	     22.98452337	     43.99036553	     -2.52614417	      0.02183796	      1.01257540	     -0.05596243	    -26.12897742	     17.17675073	    -17.63476914	     10.02503911	     45.00000000	    -16.03735729	     47.32898232	    -62.85437394	     74.12274973	     60.44156587	    -49.05125319	     13.51001040	      0.37221600	     26.34212103	    -36.28317400	    -45.00000000	      8.38514381	    -41.76356060	      4.83820872	     64.65594066	     13.25464308	     -2.74720511	     26.96504878	      8.84514755	     45.01650328	     -2.52823124
      3.19000000	     23.10922297	     43.78600781	     -2.55685818	      0.02177407	      1.01183577	     -0.05577514	    -25.78830467	     17.85653494	    -17.46402297	     10.59714384	     45.00000000	    -15.89481342	     44.41780477	    -62.13685655	     71.82558568	     58.90999524	    -50.23523626	     13.35519819	      0.87842261	     26.29800014	    -36.47518315	    -45.00000000	      8.28343905	    -42.47711037	      4.72030563	     65.03770627	     14.21661918	     -1.21120210	     25.75987863	      9.31439847	     45.21959358	     -2.42442864
      3.20000000	     23.10208649	     44.04840868	     -2.42750982	      0.02214731	      1.01186892	     -0.05592740	    -25.73545211	     17.72005687	    -17.28415718	     10.49396966	     45.00000000	    -15.87839875	     44.00514669	    -62.23997508	     71.62052966	     58.10221136	    -50.36929775	     13.07237759	      0.69977892	     26.34367942	    -36.75244989	    -45.00000000	      8.46327803	    -42.64373239	      4.49112862	     65.11463082	     14.26334601	     -1.39630922	     25.08606568	      9.57694750	     45.10705814	     -2.21798082
      3.21000000	     23.04255696	     43.97600050	     -2.20976276	      0.02218915	      1.01081934	     -0.05555137	    -25.30532440	     18.63877382	    -17.11727850	     11.26665192	     45.00000000	    -15.68246916	     40.37977542	    -61.75142585	     68.75639818	     56.35057289	    -51.96723834	     13.19191996	      1.04915164	     26.19445972	    -36.77627691	    -45.00000000	      8.05632520	    -43.77842181	      4.54231097	     65.66880775	     15.66414988	      0.25728107	     23.83601878	     10.19845023	     45.17204387	     -2.17002688
      3.22000000	     22.94694567	     44.09812516	     -2.06751888	      0.02263245	      1.01103373	     -0.05567187	    -25.26224231	     18.37590663	    -16.86781880	     11.06133973	     45.00000000	    -15.67786066	     39.94627223	    -61.68008347	     68.75824269	     55.43459570	    -52.06908019	     12.78917651	      0.88900885	     26.23712198	    -36.99508884	    -45.00000000	      8.21935830	    -43.85402600	      4.35731087	     65.68028659	     15.59357812	      0.35662188	     23.20505964	     10.33300541	     44.98458246	     -2.09150652
      3.23000000	     22.84027562	     44.02355900	     -1.98714166	      0.02292879	      1.01062071	     -0.05554766	    -25.09358149	     18.64081344	    -16.74300133	     11.28914250	     45.00000000	    -15.60087792	     37.83757473	    -61.00049735	     67.61010514	     53.87252596	    -53.04690151	     12.80960805	      1.17554207	     26.16752108	    -36.98941867	    -45.00000000	      8.03732914	    -44.32486010	      4.39175178	     65.78157955	     16.43735929	      1.81676085	     22.12897780	     10.56064494	     44.71782517	     -2.04357332
      3.24000000	     22.52795107	     44.29801765	     -1.56951540	      0.02341610	      1.01078181	     -0.05534192	    -25.08515078	     18.56732597	    -16.67832213	     11.23099168	     45.00000000	    -15.60118078	     36.62781771	    -61.02399664	     66.97758401	     52.70582964	    -53.61149972	     12.57242048	      1.06241858	     26.14760013	    -37.14104173	    -45.00000000	      8.02650734	    -44.70780525	      4.27948435	     65.91529518	     16.59010534	      2.34991870	     21.31440189	     10.71167768	     44.46470281	     -1.97865367
      3.25000000	     22.53678343	     44.46691709	     -1.54911235	      0.02369436	      1.01051417	     -0.05536295	    -24.99496226	     18.70088509	    -16.60520236	     11.34622341	     45.00000000	    -15.56169859	     35.29929059	    -60.68134255	     66.33286279	     51.44651472	    -54.32786884	     12.57722765	      1.15547044	     26.14683896	    -37.31821105	    -45.00000000	      8.07205195	    -45.00000000	      4.14189235	     66.05699178	     17.07058427	      2.96990246	     20.30000740	     10.90234285	     44.22105237	     -1.76217672
      3.26000000	     22.40240767	     44.49121810	     -1.40697289	      0.02390788	      1.01035182	     -0.05519939	    -24.82195467	     18.90165898	    -16.42912446	     11.52330473	     45.00000000	    -15.48691666	     33.34328477	    -60.19732838	     65.33614547	     49.88780522	    -55.54091240	     12.69351738	      1.23500641	     26.15012578	    -37.33128547	    -45.00000000	      8.08356272	    -45.00000000	      4.13016244	     65.81503524	     17.37944683	      3.75730500	     19.39400465	     10.97916887	     43.90744340	     -1.66016392
